<svg xmlns="http://www.w3.org/2000/svg" width="216" height="49" viewBox="0 0 216 49" fill="none" class="injected-svg" data-src="/assets/icons/ArcadiaLogo.svg" xmlns:xlink="http://www.w3.org/1999/xlink">
<path d="M71.1906 10.7842C70.8528 10.7842 70.5528 10.9943 70.4334 11.3095L58.5492 42.9548C58.3512 43.483 58.7414 44.0493 59.3064 44.0493H62.3874C62.7193 44.0493 63.0164 43.845 63.1386 43.5386L65.873 36.6152C65.9051 36.5364 65.9809 36.4838 66.0653 36.4838H80.0869C80.1743 36.4838 80.2529 36.5394 80.2821 36.621L82.7398 43.5122C82.8534 43.8333 83.1591 44.0493 83.4999 44.0493H86.9131C87.4749 44.0493 87.8653 43.4889 87.6727 42.9606L76.0741 11.3154C75.9576 10.9972 75.6548 10.7842 75.3141 10.7842H71.1906ZM78.4824 32.4472H67.6407C67.498 32.4472 67.3961 32.3042 67.4486 32.167L72.9582 17.4886C73.0251 17.3076 73.2785 17.3105 73.3455 17.4915L78.6775 32.17C78.727 32.3042 78.628 32.4472 78.4824 32.4472Z" fill="#000D1B"></path>
<path d="M97.328 21.7887C96.6226 22.3373 96.1544 22.9007 95.6739 23.8405V21.7098C95.6739 21.2632 95.3125 20.8984 94.8644 20.8984H92.2519C91.8065 20.8984 91.4424 21.2603 91.4424 21.7098V43.2357C91.4424 43.6823 91.803 44.0471 92.2519 44.0471H94.8644C95.3098 44.0471 95.6739 43.6852 95.6739 43.2357V32.2991C95.6739 29.7919 95.9968 28.4784 96.9517 27.0862C98.0378 25.478 99.7068 24.5936 101.644 24.5936C101.888 24.5936 102.153 24.6081 102.377 24.6257C102.671 24.649 102.925 24.4155 102.925 24.1178V20.8663C102.925 20.5861 102.697 20.3584 102.418 20.3584H101.791C100.111 20.3584 98.4832 20.878 97.328 21.7887Z" fill="#000D1B"></path>
<path d="M116.593 24.3036C118.486 24.3036 120.241 24.972 121.814 26.2942C122.015 26.4606 122.309 26.4431 122.492 26.2592L124.537 24.1956C124.743 23.9884 124.729 23.6527 124.514 23.4572C122.207 21.3498 119.644 20.3662 116.496 20.3662C109.711 20.3662 104.974 25.3777 104.974 32.555C104.974 39.5309 109.737 44.5949 116.301 44.5949C119.461 44.5949 121.913 43.6725 124.411 41.5302C124.627 41.3463 124.642 41.0165 124.453 40.8063L122.496 38.6435C122.312 38.4392 121.998 38.4188 121.79 38.5997C120.157 40.0358 118.564 40.6545 116.543 40.6545C112.277 40.6545 109.295 37.263 109.295 32.409C109.298 27.6339 112.297 24.3036 116.593 24.3036Z" fill="#000D1B"></path>
<path d="M146.006 24.1558C143.851 21.5347 141.394 20.3584 138.123 20.3584C131.757 20.3584 127.139 25.4837 127.139 32.5472C127.139 39.5231 131.717 44.5871 138.024 44.5871C141.321 44.5871 143.807 43.2357 146.006 40.2236V43.2387C146.006 43.6852 146.367 44.0501 146.815 44.0501H149.428C149.873 44.0501 150.237 43.6881 150.237 43.2387V21.7098C150.237 21.2632 149.876 20.8984 149.428 20.8984H146.815C146.37 20.8984 146.006 21.2603 146.006 21.7098V24.1558ZM146.058 32.2524C146.058 36.9895 142.695 40.8424 138.563 40.8424C134.571 40.8424 131.559 37.3194 131.559 32.6435C131.559 30.5187 132.22 28.388 133.373 26.8002L133.376 26.7973C134.65 25.0022 136.28 24.2024 138.662 24.2024C143.018 24.2024 146.058 27.5123 146.058 32.2524Z" fill="#000D1B"></path>
<path d="M173.532 23.9009C171.4 21.487 168.896 20.3575 165.698 20.3575C159.492 20.3575 154.812 25.62 154.812 32.5959C154.812 39.6563 159.288 44.5861 165.698 44.5861C168.969 44.5861 171.347 43.404 173.532 40.6604V43.2376C173.532 43.6842 173.892 44.0491 174.341 44.0491H176.953C177.398 44.0491 177.762 43.6872 177.762 43.2376V11.5895C177.762 11.1429 177.402 10.7781 176.953 10.7781H174.341C173.896 10.7781 173.532 11.14 173.532 11.5895V23.9009ZM173.532 32.5462C173.532 37.3534 170.463 40.8414 166.237 40.8414C162.113 40.8414 159.233 37.4702 159.233 32.6426C159.233 27.5931 162.146 24.2015 166.481 24.2015C170.695 24.2015 173.532 27.5552 173.532 32.5462Z" fill="#000D1B"></path>
<path d="M184.776 12.5269C184.159 12.8129 183.693 13.3733 183.519 14.0329C183.009 15.9534 184.252 17.55 186.005 17.55C187.494 17.55 188.658 16.4029 188.658 14.9406C188.658 12.9997 186.788 11.5957 184.776 12.5269Z" fill="#000D1B"></path>
<path d="M184.701 44.1776H187.314C187.759 44.1776 188.123 43.8157 188.123 43.3662V21.8403C188.123 21.3937 187.762 21.0288 187.314 21.0288H184.701C184.256 21.0288 183.892 21.3907 183.892 21.8403V43.3662C183.894 43.8128 184.256 44.1776 184.701 44.1776Z" fill="#000D1B"></path>
<path d="M211.431 21.8411V24.287C209.279 21.666 206.818 20.4897 203.548 20.4897C197.182 20.4897 192.563 25.6151 192.563 32.6784C192.563 39.6543 197.142 44.7183 203.449 44.7183C206.746 44.7183 209.232 43.367 211.431 40.3548V43.3699C211.431 43.8165 211.792 44.1813 212.24 44.1813H214.853C215.298 44.1813 215.662 43.8194 215.662 43.3699V21.8411C215.662 21.3946 215.301 21.0297 214.853 21.0297H212.24C211.795 21.0297 211.431 21.3916 211.431 21.8411ZM211.483 32.3837C211.483 37.1208 208.12 40.9736 203.988 40.9736C199.996 40.9736 196.984 37.4506 196.984 32.7748C196.984 30.6499 197.646 28.5192 198.798 26.9314L198.802 26.9285C200.074 25.1334 201.705 24.3337 204.087 24.3337C208.443 24.3337 211.483 27.6436 211.483 32.3837Z" fill="#000D1B"></path>
<path d="M24.1649 0C10.8203 0 0 10.8452 0 24.2204C0 32.0377 3.70155 38.9944 9.44199 43.424C9.68321 43.6082 10.0278 43.5132 10.1484 43.2369L21.4656 17.0363C21.5402 16.8636 21.7096 16.7513 21.8992 16.7513H26.4881C26.6776 16.7513 26.847 16.8636 26.9217 17.0363L38.2072 43.2196C38.3278 43.4988 38.6753 43.5938 38.9137 43.4067C40.0221 42.5519 41.0502 41.602 41.9978 40.5688C45.9233 36.2543 48.3269 30.5179 48.3269 24.2204C48.3298 10.8452 37.5066 0 24.1649 0ZM39.755 33.5343C39.5626 33.8567 39.0945 33.8164 38.9452 33.471C38.3767 32.1557 37.7506 30.705 37.0902 29.1709C36.9954 28.9522 36.9896 28.7047 37.0643 28.4744C37.5036 27.136 37.7593 25.7055 37.7593 24.2175C37.7593 16.6938 31.6742 10.5948 24.1677 10.5948C16.6613 10.5948 10.5705 16.6967 10.5705 24.2204C10.5705 25.7315 10.8318 27.1821 11.2855 28.5434C11.3631 28.7737 11.3545 29.0213 11.2597 29.2429C10.5992 30.7712 9.97897 32.219 9.41325 33.5286C9.26395 33.8711 8.79869 33.9143 8.60631 33.5919C6.96373 30.8547 6.01896 27.6483 6.01896 24.2204C6.01896 14.1753 14.1428 6.03278 24.1649 6.03278C34.1869 6.03278 42.3108 14.1753 42.3108 24.2204C42.3108 27.6253 41.3775 30.8115 39.755 33.5343Z" fill="#1DA590"></path>
<path d="M32.1941 40.8656C32.1309 40.716 31.9558 40.6527 31.8094 40.7217C29.492 41.8069 26.9046 42.4113 24.1708 42.4113C21.4513 42.4113 18.8726 41.8069 16.5552 40.7304C16.4087 40.6613 16.2335 40.7275 16.1704 40.8743L14.0769 45.7212C13.9765 45.9543 14.0769 46.2278 14.3096 46.3343C17.3219 47.6899 20.6559 48.444 24.1708 48.444C27.6943 48.444 31.0282 47.6842 34.0463 46.3257C34.2789 46.2221 34.3823 45.9486 34.2789 45.7126C33.8339 44.6765 33.0901 42.9495 32.1941 40.8656Z" fill="#1DA590"></path>
<path d="M24.1638 37.8432C26.2601 37.8432 28.2357 37.3453 30.0105 36.4933C30.1454 36.4271 30.2028 36.2689 30.1454 36.1306L24.3504 22.6979C24.2843 22.5454 24.069 22.5454 24.0029 22.6979L18.2022 36.1364C18.1419 36.2746 18.1994 36.4357 18.3372 36.4991C20.1061 37.3511 22.0761 37.8432 24.1638 37.8432Z" fill="#1DA590"></path>
</svg>