<svg width="351" height="82" viewBox="0 0 351 82" fill="none" xmlns="http://www.w3.org/2000/svg">
<g clip-path="url(#clip0)">
<path d="M97.2 10H106.1C107.7 10 109.1 10.1 110.3 10.4C111.6 10.7 112.6 11.1 113.5 11.8C114.4 12.4 115.1 13.3 115.6 14.3C116.1 15.3 116.3 16.5 116.3 17.9C116.3 19.4 116 20.7 115.5 21.7C114.9 22.7 114.2 23.6 113.2 24.2C112.2 24.8 111.1 25.3 109.8 25.6C108.5 25.9 107.2 26 105.7 26H102V37.3H97.2V10V10ZM105.5 21.9C106.3 21.9 107 21.8 107.8 21.7C108.5 21.6 109.2 21.4 109.7 21.1C110.3 20.8 110.7 20.4 111 19.9C111.3 19.4 111.5 18.7 111.5 17.9C111.5 17.1 111.3 16.5 111 16C110.7 15.5 110.2 15.1 109.7 14.8C109.1 14.5 108.5 14.3 107.8 14.2C107.1 14.1 106.4 14.1 105.6 14.1H102.1V21.9H105.5Z" fill="black"/>
<path d="M118.6 18.8H123V21.9H123.1C123.6 20.8 124.3 20 125.3 19.3C126.2 18.6 127.3 18.3 128.5 18.3C128.7 18.3 128.9 18.3 129.1 18.3C129.3 18.3 129.5 18.3 129.6 18.4V22.6C129.3 22.5 129 22.5 128.8 22.4C128.6 22.4 128.4 22.4 128.2 22.4C127.1 22.4 126.3 22.6 125.7 23C125.1 23.4 124.6 23.8 124.2 24.4C123.8 24.9 123.6 25.5 123.5 26.1C123.4 26.7 123.3 27.1 123.3 27.4V37.3H118.7V18.8H118.6Z" fill="black"/>
<path d="M131 27.9001C131 26.4001 131.3 25.1001 131.8 23.9001C132.3 22.7001 133 21.7001 133.9 20.8001C134.8 20.0001 135.9 19.3001 137.1 18.8001C138.3 18.3001 139.6 18.1001 141 18.1001C142.4 18.1001 143.7 18.3001 144.9 18.8001C146.1 19.3001 147.2 19.9001 148.1 20.8001C149 21.6001 149.7 22.7001 150.2 23.9001C150.7 25.1001 151 26.4001 151 27.9001C151 29.4001 150.7 30.7001 150.2 31.9001C149.7 33.1001 149 34.1001 148.1 35.0001C147.2 35.9001 146.1 36.5001 144.9 37.0001C143.7 37.5001 142.4 37.7001 141 37.7001C139.6 37.7001 138.3 37.5001 137.1 37.0001C135.9 36.5001 134.8 35.8001 133.9 35.0001C133 34.1001 132.3 33.1001 131.8 31.9001C131.3 30.7001 131 29.4001 131 27.9001ZM135.7 27.9001C135.7 28.6001 135.8 29.3001 136 30.1001C136.2 30.8001 136.5 31.5001 137 32.0001C137.4 32.6001 138 33.0001 138.7 33.4001C139.4 33.8001 140.2 33.9001 141.1 33.9001C142 33.9001 142.8 33.7001 143.5 33.4001C144.2 33.0001 144.7 32.6001 145.2 32.0001C145.6 31.4001 146 30.8001 146.2 30.1001C146.4 29.4001 146.5 28.7001 146.5 27.9001C146.5 27.2001 146.4 26.5001 146.2 25.8001C146 25.1001 145.7 24.5001 145.2 23.9001C144.8 23.3001 144.2 22.9001 143.5 22.5001C142.8 22.2001 142 22.0001 141.1 22.0001C140.2 22.0001 139.4 22.2001 138.7 22.5001C138 22.8001 137.5 23.3001 137 23.9001C136.6 24.5001 136.2 25.1001 136 25.8001C135.8 26.5001 135.7 27.2001 135.7 27.9001Z" fill="black"/>
<path d="M159.3 18.8V38.4001C159.3 39.5001 159.2 40.5 159 41.5C158.8 42.5 158.5 43.3 158 44.1C157.5 44.8 156.8 45.4 156 45.8C155.1 46.2 154 46.5 152.6 46.5C152.2 46.5 151.8 46.5001 151.4 46.4001C151 46.3001 150.7 46.3001 150.5 46.2001L150.9 42.3C151.1 42.4 151.3 42.4001 151.6 42.4001C151.8 42.4001 152 42.4001 152.2 42.4001C152.7 42.4001 153.2 42.3 153.5 42.1C153.8 41.9 154.1 41.6 154.3 41.3C154.5 40.9 154.6 40.5 154.6 40.1C154.7 39.6 154.7 39.1 154.7 38.6V18.8H159.3ZM154.1 12.5C154.1 11.8 154.4 11.1 154.9 10.6C155.5 10 156.1 9.80005 157 9.80005C157.8 9.80005 158.6 10.1 159.1 10.6C159.7 11.1 160 11.8 160 12.6C160 13.4 159.7 14.1 159.1 14.6C158.5 15.1 157.8 15.4 157 15.4C156.2 15.4 155.5 15.1 154.9 14.6C154.4 13.9 154.1 13.3 154.1 12.5Z" fill="black"/>
<path d="M181.7 28.3001C181.7 28.5001 181.7 28.7001 181.7 28.9001C181.7 29.1001 181.7 29.3001 181.7 29.5001H167.7C167.8 30.2001 167.9 30.8001 168.2 31.3001C168.5 31.9001 168.9 32.3001 169.4 32.7001C169.9 33.1001 170.4 33.4001 171.1 33.6001C171.7 33.8001 172.4 33.9001 173 33.9001C174.2 33.9001 175.1 33.7001 175.9 33.3001C176.7 32.9001 177.3 32.3001 177.9 31.6001L181 34.1001C179.2 36.6001 176.5 37.8001 173.1 37.8001C171.7 37.8001 170.3 37.6001 169.1 37.1001C167.9 36.7001 166.9 36.0001 166 35.2001C165.1 34.4001 164.4 33.4001 163.9 32.2001C163.4 31.0001 163.2 29.7001 163.2 28.1001C163.2 26.6001 163.4 25.3001 163.9 24.0001C164.4 22.8001 165.1 21.7001 166 20.9001C166.9 20.0001 167.9 19.4001 169.1 18.9001C170.3 18.4001 171.6 18.2001 173 18.2001C174.3 18.2001 175.5 18.4001 176.6 18.8001C177.7 19.2001 178.6 19.9001 179.4 20.7001C180.2 21.5001 180.8 22.6001 181.3 23.8001C181.5 25.1001 181.7 26.6001 181.7 28.3001ZM177.1 26.2001C177.1 25.6001 177 25.0001 176.9 24.5001C176.7 24.0001 176.5 23.5001 176.1 23.1001C175.7 22.7001 175.3 22.4001 174.7 22.1001C174.1 21.9001 173.5 21.7001 172.8 21.7001C171.4 21.7001 170.2 22.1001 169.3 22.9001C168.3 23.7001 167.8 24.8001 167.7 26.1001H177.1V26.2001Z" fill="black"/>
<path d="M198.7 23.9001C198.3 23.4001 197.8 23.0001 197.1 22.6001C196.4 22.3001 195.7 22.1001 194.9 22.1001C194.1 22.1001 193.3 22.3001 192.7 22.6001C192.1 22.9001 191.5 23.4001 191.1 24.0001C190.7 24.6001 190.4 25.2001 190.2 25.9001C190 26.6001 189.9 27.3001 189.9 28.0001C189.9 28.7001 190 29.4001 190.2 30.1001C190.4 30.8001 190.7 31.4001 191.2 32.0001C191.6 32.6001 192.2 33.0001 192.8 33.4001C193.5 33.7001 194.2 33.9001 195.1 33.9001C195.8 33.9001 196.5 33.8001 197.3 33.5001C198 33.2001 198.6 32.8001 199 32.3001L201.9 35.2001C201.1 36.0001 200.2 36.7001 199 37.1001C197.8 37.5001 196.5 37.8001 195.1 37.8001C193.7 37.8001 192.5 37.6001 191.2 37.1001C190 36.7001 188.9 36.0001 188 35.2001C187.1 34.4001 186.4 33.3001 185.8 32.1001C185.3 30.9001 185 29.5001 185 28.0001C185 26.5001 185.3 25.2001 185.8 24.0001C186.3 22.8001 187 21.8001 187.9 20.9001C188.8 20.1001 189.8 19.4001 191 18.9001C192.2 18.4001 193.5 18.2001 194.8 18.2001C196.2 18.2001 197.5 18.5001 198.7 19.0001C200 19.5001 201 20.2001 201.7 21.1001L198.7 23.9001Z" fill="black"/>
<path d="M203.6 22.5V18.8H206.8V13.5H211.3V18.8H215.9V22.5H211.3V31.1C211.3 31.9 211.4 32.6 211.7 33.1C212 33.6 212.7 33.9 213.7 33.9C214 33.9 214.3 33.9 214.7 33.8C215.1 33.7 215.4 33.6 215.7 33.5L215.9 37.1C215.5 37.3 215 37.4 214.4 37.5C213.8 37.6 213.3 37.6 212.8 37.6C211.6 37.6 210.6 37.4 209.8 37.1C209 36.8 208.4 36.3 208 35.7C207.6 35.1 207.2 34.4 207.1 33.6C206.9 32.8 206.9 32 206.9 31.1V22.5H203.6Z" fill="black"/>
<path d="M227.5 10H238.1C239.1 10 240.1 10.1 241.1 10.4C242.1 10.6 243 11 243.8 11.6C244.6 12.2 245.2 12.9 245.7 13.7C246.2 14.6 246.4 15.6 246.4 16.9C246.4 18.4 246 19.7 245.1 20.7C244.2 21.7 243.1 22.4 241.7 22.9V23C243.4 23.2 244.8 23.9 245.9 25C247 26.1 247.6 27.6 247.6 29.4C247.6 30.9 247.3 32.1 246.7 33.1C246.1 34.1 245.3 34.9 244.4 35.5C243.4 36.1 242.3 36.6 241.1 36.8C239.9 37.1 238.6 37.2 237.3 37.2H227.5V10V10ZM232.3 21.1H236.6C238.2 21.1 239.4 20.8 240.3 20.1C241.1 19.5 241.6 18.6 241.6 17.4C241.6 16.2 241.2 15.3 240.3 14.8C239.4 14.3 238.1 14 236.2 14H232.3V21.1ZM232.3 33.2H236.6C237.2 33.2 237.9 33.2 238.6 33.1C239.3 33 240 32.8 240.6 32.5C241.2 32.2 241.7 31.8 242.1 31.3C242.5 30.8 242.7 30 242.7 29.1C242.7 27.7 242.2 26.7 241.2 26.1C240.2 25.5 238.8 25.3 236.8 25.3H232.3V33.2Z" fill="black"/>
<path d="M269.1 28.3001C269.1 28.5001 269.1 28.7001 269.1 28.9001C269.1 29.1001 269.1 29.3001 269.1 29.5001H255.1C255.2 30.2001 255.3 30.8001 255.6 31.3001C255.9 31.9001 256.3 32.3001 256.8 32.7001C257.3 33.1001 257.8 33.4001 258.5 33.6001C259.1 33.8001 259.8 33.9001 260.4 33.9001C261.6 33.9001 262.5 33.7001 263.3 33.3001C264.1 32.9001 264.7 32.3001 265.3 31.6001L268.4 34.1001C266.6 36.6001 263.9 37.8001 260.5 37.8001C259.1 37.8001 257.7 37.6001 256.5 37.1001C255.3 36.7001 254.3 36.0001 253.4 35.2001C252.5 34.4001 251.8 33.4001 251.3 32.2001C250.8 31.0001 250.6 29.7001 250.6 28.1001C250.6 26.6001 250.8 25.3001 251.3 24.0001C251.8 22.8001 252.5 21.7001 253.4 20.9001C254.3 20.0001 255.3 19.4001 256.5 18.9001C257.7 18.4001 259 18.2001 260.4 18.2001C261.7 18.2001 262.9 18.4001 264 18.8001C265.1 19.2001 266 19.9001 266.8 20.7001C267.6 21.5001 268.2 22.6001 268.7 23.8001C268.9 25.1001 269.1 26.6001 269.1 28.3001ZM264.5 26.2001C264.5 25.6001 264.4 25.0001 264.3 24.5001C264.1 24.0001 263.9 23.5001 263.5 23.1001C263.1 22.7001 262.7 22.4001 262.1 22.1001C261.5 21.9001 260.9 21.7001 260.2 21.7001C258.8 21.7001 257.6 22.1001 256.7 22.9001C255.7 23.7001 255.2 24.8001 255.1 26.1001H264.5V26.2001Z" fill="black"/>
<path d="M284.5 34.9001H284.4C283.9 35.7001 283.2 36.4001 282.2 36.9001C281.2 37.4001 280 37.7001 278.7 37.7001C278 37.7001 277.2 37.6001 276.4 37.4001C275.6 37.2001 274.8 36.9001 274.2 36.4001C273.5 36.0001 273 35.4001 272.5 34.6001C272.1 33.9001 271.8 33.0001 271.8 31.9001C271.8 30.5001 272.2 29.4001 273 28.6001C273.8 27.8001 274.8 27.2001 276 26.7001C277.2 26.3001 278.6 26.0001 280.1 25.8001C281.6 25.7001 283.1 25.6001 284.5 25.6001V25.1001C284.5 23.9001 284.1 23.1001 283.3 22.5001C282.5 21.9001 281.5 21.7001 280.3 21.7001C279.3 21.7001 278.4 21.9001 277.5 22.3001C276.6 22.7001 275.9 23.2001 275.3 23.8001L272.9 21.0001C274 20.0001 275.2 19.3001 276.5 18.8001C277.9 18.3001 279.3 18.1001 280.7 18.1001C282.3 18.1001 283.7 18.3001 284.8 18.8001C285.9 19.3001 286.7 19.9001 287.3 20.6001C287.9 21.3001 288.3 22.2001 288.6 23.1001C288.8 24.0001 289 24.9001 289 25.9001V37.1001H284.7V34.9001H284.5ZM284.4 28.8001H283.4C282.7 28.8001 281.9 28.8001 281.1 28.9001C280.3 29.0001 279.5 29.1001 278.8 29.3001C278.1 29.5001 277.5 29.8001 277.1 30.2001C276.6 30.6001 276.4 31.1001 276.4 31.8001C276.4 32.2001 276.5 32.6001 276.7 32.9001C276.9 33.2001 277.1 33.4001 277.4 33.6001C277.7 33.8001 278.1 33.9001 278.4 34.0001C278.8 34.1001 279.2 34.1001 279.6 34.1001C281.2 34.1001 282.4 33.7001 283.2 32.8001C284 32.0001 284.4 30.8001 284.4 29.3001V28.8001Z" fill="black"/>
<path d="M305.9 23.9001C305.5 23.4001 305 23.0001 304.3 22.6001C303.6 22.3001 302.9 22.1001 302.1 22.1001C301.3 22.1001 300.5 22.3001 299.9 22.6001C299.3 22.9001 298.7 23.4001 298.3 24.0001C297.9 24.6001 297.6 25.2001 297.4 25.9001C297.2 26.6001 297.1 27.3001 297.1 28.0001C297.1 28.7001 297.2 29.4001 297.4 30.1001C297.6 30.8001 297.9 31.4001 298.4 32.0001C298.8 32.6001 299.4 33.0001 300 33.4001C300.7 33.7001 301.4 33.9001 302.3 33.9001C303 33.9001 303.7 33.8001 304.5 33.5001C305.2 33.2001 305.8 32.8001 306.2 32.3001L309.1 35.2001C308.3 36.0001 307.4 36.7001 306.2 37.1001C305 37.5001 303.7 37.8001 302.3 37.8001C300.9 37.8001 299.7 37.6001 298.4 37.1001C297.2 36.7001 296.1 36.0001 295.2 35.2001C294.3 34.4001 293.6 33.3001 293 32.1001C292.5 30.9001 292.2 29.5001 292.2 28.0001C292.2 26.5001 292.5 25.2001 293 24.0001C293.5 22.8001 294.2 21.8001 295.1 20.9001C296 20.1001 297 19.4001 298.2 18.9001C299.4 18.4001 300.7 18.2001 302 18.2001C303.4 18.2001 304.7 18.5001 305.9 19.0001C307.2 19.5001 308.2 20.2001 308.9 21.1001L305.9 23.9001Z" fill="black"/>
<path d="M310.4 27.9001C310.4 26.4001 310.7 25.1001 311.2 23.9001C311.7 22.7001 312.4 21.7001 313.3 20.8001C314.2 20.0001 315.3 19.3001 316.5 18.8001C317.7 18.3001 319 18.1001 320.4 18.1001C321.8 18.1001 323.1 18.3001 324.3 18.8001C325.5 19.3001 326.6 19.9001 327.5 20.8001C328.4 21.6001 329.1 22.7001 329.6 23.9001C330.1 25.1001 330.4 26.4001 330.4 27.9001C330.4 29.4001 330.1 30.7001 329.6 31.9001C329.1 33.1001 328.4 34.1001 327.5 35.0001C326.6 35.9001 325.5 36.5001 324.3 37.0001C323.1 37.5001 321.8 37.7001 320.4 37.7001C319 37.7001 317.7 37.5001 316.5 37.0001C315.3 36.5001 314.2 35.8001 313.3 35.0001C312.4 34.1001 311.7 33.1001 311.2 31.9001C310.6 30.7001 310.4 29.4001 310.4 27.9001ZM315.1 27.9001C315.1 28.6001 315.2 29.3001 315.4 30.1001C315.6 30.8001 315.9 31.5001 316.4 32.0001C316.8 32.6001 317.4 33.0001 318.1 33.4001C318.8 33.8001 319.6 33.9001 320.5 33.9001C321.4 33.9001 322.2 33.7001 322.9 33.4001C323.6 33.0001 324.1 32.6001 324.6 32.0001C325 31.4001 325.4 30.8001 325.6 30.1001C325.8 29.4001 325.9 28.7001 325.9 27.9001C325.9 27.2001 325.8 26.5001 325.6 25.8001C325.4 25.1001 325.1 24.5001 324.6 23.9001C324.2 23.3001 323.6 22.9001 322.9 22.5001C322.2 22.2001 321.4 22.0001 320.5 22.0001C319.6 22.0001 318.8 22.2001 318.1 22.5001C317.4 22.8001 316.9 23.3001 316.4 23.9001C316 24.5001 315.6 25.1001 315.4 25.8001C315.2 26.5001 315.1 27.2001 315.1 27.9001Z" fill="black"/>
<path d="M333.5 18.8H337.9V21.8H338C338.4 20.9 339.1 20.1 340.1 19.4C341.1 18.7 342.3 18.3 343.7 18.3C344.9 18.3 345.9 18.5 346.8 18.9C347.7 19.3 348.4 19.9 348.9 20.6C349.5 21.3 349.9 22.1 350.1 23C350.4 23.9 350.5 24.8 350.5 25.8V37.3H345.9V27C345.9 26.5 345.9 25.9 345.8 25.3C345.7 24.7 345.6 24.2001 345.3 23.7001C345 23.2001 344.7 22.8 344.2 22.5C343.8 22.2 343.2 22 342.4 22C341.7 22 341 22.1 340.5 22.4C340 22.7 339.5 23.1 339.2 23.5C338.9 24 338.6 24.5 338.4 25.1C338.2 25.7 338.1 26.3 338.1 26.9V37H333.5V18.8V18.8Z" fill="black"/>
<path d="M117.1 70.6C116.7 71.2 116.2 71.8 115.7 72.3C115.1 72.8 114.5 73.3 113.7 73.7C113 74.1 112.1 74.4 111.2 74.7C110.3 74.9 109.3 75.1 108.3 75.1C106.5 75.1 104.9 74.8 103.4 74.2C101.9 73.6 100.6 72.7 99.5 71.6C98.4 70.5 97.6 69.2 97 67.7C96.4 66.2 96.1 64.5 96.1 62.8C96.1 61 96.4 59.4 97 57.9C97.6 56.4 98.5 55.1 99.6 54C100.7 52.9 102 52 103.5 51.4C105 50.8 106.6 50.5 108.4 50.5C109.3 50.5 110.1 50.6 110.9 50.8C111.7 51 112.5 51.2 113.2 51.6C113.9 51.9 114.6 52.3 115.2 52.8C115.8 53.3 116.3 53.8 116.7 54.3L114.7 55.8C114.5 55.4 114.1 55 113.7 54.7C113.3 54.3 112.8 54 112.3 53.7C111.7 53.4 111.1 53.2 110.5 53C109.8 52.8 109.1 52.7 108.4 52.7C106.9 52.7 105.5 53 104.3 53.5C103.1 54.1 102.1 54.8 101.2 55.7C100.4 56.6 99.7 57.7 99.3 59C98.9 60.2 98.6 61.5 98.6 62.9C98.6 64.3 98.8 65.6 99.3 66.8C99.8 68 100.4 69.1 101.2 70.1C102 71 103.1 71.8 104.3 72.3C105.5 72.9 106.9 73.1 108.4 73.1C109.8 73.1 111 72.8 112.3 72.3C113.5 71.7 114.5 70.9 115.4 69.6L117.1 70.6Z" fill="black"/>
<path d="M144.5 62.7C144.5 64.5 144.2 66.1 143.6 67.6C143 69.1 142.1 70.4 141 71.5C139.9 72.6 138.6 73.5 137.1 74.1C135.6 74.7 134 75 132.2 75C130.5 75 128.8 74.7 127.3 74.1C125.8 73.5 124.5 72.6 123.4 71.5C122.3 70.4 121.4 69.1 120.8 67.6C120.2 66.1 119.9 64.4 119.9 62.7C119.9 60.9 120.2 59.3 120.8 57.8C121.4 56.3 122.3 55 123.4 53.9C124.5 52.8 125.8 51.9 127.3 51.3C128.8 50.7 130.4 50.4 132.2 50.4C133.9 50.4 135.6 50.7 137.1 51.3C138.6 51.9 139.9 52.8 141 53.9C142.1 55 143 56.3 143.6 57.8C144.1 59.2 144.5 60.9 144.5 62.7ZM141.9 62.7C141.9 61.3 141.7 60 141.2 58.8C140.8 57.6 140.1 56.5 139.3 55.5C138.5 54.6 137.4 53.8 136.2 53.3C135 52.7 133.6 52.5 132.1 52.5C130.6 52.5 129.2 52.8 128 53.3C126.8 53.9 125.8 54.6 124.9 55.5C124.1 56.4 123.4 57.5 123 58.8C122.6 60 122.3 61.3 122.3 62.7C122.3 64.1 122.5 65.4 123 66.6C123.4 67.8 124.1 68.9 124.9 69.8C125.7 70.7 126.8 71.5 128 72C129.2 72.6 130.6 72.8 132.1 72.8C133.6 72.8 135 72.5 136.2 72C137.4 71.4 138.4 70.7 139.3 69.8C140.1 68.9 140.8 67.8 141.2 66.6C141.7 65.4 141.9 64.1 141.9 62.7Z" fill="black"/>
<path d="M155.9 71.3L163.6 50.9H166.2L157.2 74.4H154.7L145.7 50.9H148.3L155.9 71.3Z" fill="black"/>
<path d="M171.6 74.4H169.2V61.4V50.9H171.6V61.2V74.4Z" fill="black"/>
<path d="M177.3 50.9H185.1C186.6 50.9 188 51.1 189.5 51.6C191 52.1 192.3 52.8 193.5 53.8C194.7 54.8 195.6 56 196.4 57.5C197.1 59 197.5 60.7 197.5 62.6C197.5 64.6 197.1 66.3 196.4 67.7C195.7 69.2 194.7 70.4 193.5 71.4C192.3 72.4 191 73.1 189.5 73.6C188 74.1 186.6 74.3 185.1 74.3H177.3V50.9ZM179.7 72.3H184.4C186.2 72.3 187.7 72 189 71.5C190.3 70.9 191.4 70.2 192.3 69.3C193.2 68.4 193.8 67.4 194.2 66.2C194.6 65 194.8 63.9 194.8 62.6C194.8 61.4 194.6 60.2 194.2 59C193.8 57.8 193.1 56.8 192.3 55.9C191.4 55 190.3 54.3 189 53.7C187.7 53.1 186.1 52.9 184.4 52.9H179.7V72.3Z" fill="black"/>
<path d="M209 67.3H201.6V65.4H209V67.3Z" fill="black"/>
<path d="M218.2 74.4H215.8V53.9L211.5 57.5L210 55.8L216 50.9H218.1V74.4H218.2Z" fill="black"/>
<path d="M232.8 64.2C232.4 64.4 231.9 64.6 231.2 64.8C230.6 65 229.9 65 229.3 65C228.3 65 227.3 64.8 226.5 64.5C225.6 64.1 224.9 63.7 224.2 63C223.6 62.4 223.1 61.6 222.7 60.7C222.3 59.8 222.2 58.8 222.2 57.8C222.2 56.7 222.4 55.7 222.8 54.8C223.2 53.9 223.7 53.1 224.4 52.5C225.1 51.9 225.9 51.4 226.8 51C227.7 50.6 228.7 50.5 229.9 50.5C231 50.5 232 50.7 233 51C233.9 51.4 234.7 51.9 235.4 52.5C236.1 53.1 236.6 53.9 237 54.8C237.4 55.7 237.6 56.7 237.6 57.8C237.6 59 237.4 60.1 237 61.2C236.6 62.2 236.1 63.2 235.5 64.2L229 74.4H226.2L232.8 64.2ZM235.1 57.7C235.1 56.9 235 56.2 234.7 55.6C234.4 54.9 234.1 54.4 233.6 53.9C233.1 53.4 232.6 53 231.9 52.8C231.3 52.5 230.5 52.4 229.8 52.4C229 52.4 228.3 52.5 227.7 52.8C227.1 53.1 226.5 53.5 226 53.9C225.5 54.4 225.2 54.9 224.9 55.6C224.6 56.3 224.5 57 224.5 57.7C224.5 58.5 224.6 59.2 224.9 59.8C225.1 60.5 225.5 61 225.9 61.5C226.4 62 226.9 62.3 227.6 62.6C228.3 62.9 229 63 229.8 63C230.6 63 231.3 62.9 232 62.6C232.7 62.3 233.2 62 233.7 61.5C234.2 61 234.5 60.5 234.7 59.8C235 59.2 235.1 58.5 235.1 57.7Z" fill="black"/>
<path d="M10.7 13.2C7.9 16.3 5.5 19.8 3.7 23.6L33.3 35.9L10.7 13.2Z" fill="#001C71"/>
<path d="M68.5 10.7C65.4 7.89995 61.9 5.49995 58.1 3.69995L45.8 33.4L68.5 10.7Z" fill="#001C71"/>
<path d="M81.7 39.1C81.5 34.8 80.7 30.7 79.3 26.8L49.7 39.1H81.7Z" fill="#001C71"/>
<path d="M54.9 2.4C51 1 46.9 0.2 42.6 0V32.1L54.9 2.4Z" fill="#001C71"/>
<path d="M23.6 3.80005C19.8 5.60005 16.3 7.90005 13.2 10.8L35.9 33.5L23.6 3.80005Z" fill="#001C71"/>
<path d="M39.1 0C34.8 0.2 30.7 1 26.8 2.4L39.1 32V0Z" fill="#001C71"/>
<path d="M77.9 23.6C76.1 19.8 73.8 16.3 70.9 13.2L48.3 35.9L77.9 23.6Z" fill="#001C71"/>
<path d="M26.8 79.3C30.7 80.7 34.8 81.4999 39.1 81.6999V49.7L26.8 79.3Z" fill="#001C71"/>
<path d="M42.6 81.6999C46.9 81.4999 51 80.7 54.9 79.3L42.6 49.7V81.6999Z" fill="#001C71"/>
<path d="M49.7 42.6L79.3 54.9C80.7 51 81.5 46.9 81.7 42.6H49.7V42.6Z" fill="#001C71"/>
<path d="M58.1 77.9001C61.9 76.1001 65.4 73.8001 68.5 70.9001L45.8 48.3L58.1 77.9001Z" fill="#001C71"/>
<path d="M13.2 71C16.3 73.8 19.8 76.2 23.6 78L35.9 48.4L13.2 71Z" fill="#001C71"/>
<path d="M71 68.5C73.8 65.4 76.2 61.9 78 58.1L48.3 45.8L71 68.5Z" fill="#001C71"/>
<path d="M3.8 58.1C5.6 61.9 7.9 65.4 10.8 68.5L33.5 45.8L3.8 58.1Z" fill="#001C71"/>
<path d="M0 42.6C0.2 46.9 1 51 2.4 54.9L32 42.6H0V42.6Z" fill="#001C71"/>
<path d="M2.4 26.8C1 30.7 0.2 34.8 0 39.1H32.1L2.4 26.8Z" fill="#001C71"/>
</g>
<defs>
<clipPath id="clip0">
<rect width="350.5" height="81.7" fill="white"/>
</clipPath>
</defs>
</svg>
