<svg width="284" height="103" viewBox="0 0 284 103" fill="none" xmlns="http://www.w3.org/2000/svg">
<g clip-path="url(#clip0)">
<path d="M97.7823 0.217651H0V102.891H97.7823V0.217651Z" fill="#000066"/>
<path d="M78.3696 26.3211H19.5154V45.4637H78.3696V26.3211Z" fill="#FFDF1B"/>
<path d="M78.3696 57.4277H19.5154V76.5703H78.3696V57.4277Z" fill="#FFDF1B"/>
<path d="M136.812 10.3326C138.353 10.3326 138.559 10.3326 138.559 9.02746V5.98205C138.559 2.50158 138.353 2.28406 136.299 1.95776L135.374 1.849C135.066 1.63147 135.066 0.761352 135.477 0.543823C137.326 0.652588 138.867 0.652588 140.305 0.652588C141.845 0.652588 143.283 0.652588 145.132 0.543823C145.543 0.652588 145.543 1.5227 145.235 1.849L144.31 1.95776C142.256 2.28406 142.051 2.50158 142.051 5.98205V17.2936C142.051 20.774 142.256 20.9916 144.31 21.3178L145.44 21.4266C145.748 21.6441 145.748 22.5143 145.338 22.7318C143.283 22.623 141.743 22.623 140.305 22.623C138.764 22.623 137.326 22.623 135.477 22.7318C135.066 22.623 135.066 21.7529 135.374 21.4266L136.299 21.3178C138.353 20.9916 138.559 20.774 138.559 17.2936V13.2693C138.559 11.9641 138.456 11.9641 136.812 11.9641H128.39C126.747 11.9641 126.644 11.9641 126.644 13.2693V17.2936C126.644 20.774 126.849 21.1003 128.904 21.3178L130.239 21.4266C130.547 21.6441 130.547 22.5143 130.136 22.7318C127.979 22.623 126.336 22.623 124.898 22.623C123.357 22.623 121.919 22.623 120.378 22.7318C119.968 22.623 119.968 21.7529 120.276 21.4266L120.789 21.3178C122.844 20.774 123.049 20.774 123.049 17.2936V5.98205C123.049 2.50158 122.844 2.28406 120.789 1.95776L119.659 1.849C119.351 1.63147 119.351 0.761352 119.762 0.543823C121.816 0.652588 123.254 0.652588 124.795 0.652588C126.336 0.652588 127.774 0.652588 129.52 0.543823C129.931 0.652588 129.931 1.5227 129.623 1.849L128.904 1.95776C126.849 2.39282 126.644 2.50158 126.644 5.98205V9.02746C126.644 10.3326 126.849 10.3326 128.39 10.3326H136.812Z" fill="#000066"/>
<path d="M159.408 5.98211C159.408 2.50165 159.203 2.39288 157.149 1.95782L156.43 1.84906C156.122 1.63153 156.122 0.761413 156.532 0.543884C158.176 0.652649 159.614 0.652649 161.154 0.652649C162.695 0.652649 164.133 0.652649 165.982 0.543884C166.393 0.652649 166.393 1.52277 166.085 1.84906L165.16 1.95782C163.106 2.28412 162.901 2.50165 162.901 5.98211V13.0518C162.901 18.1637 164.441 21.5354 169.063 21.5354C173.377 21.5354 175.226 18.055 175.226 13.0518V8.37493C175.226 3.263 174.918 2.17535 172.864 1.84906L171.837 1.74029C171.528 1.414 171.528 0.761413 171.939 0.43512C173.48 0.543884 174.61 0.543884 175.945 0.543884C177.28 0.543884 178.41 0.543884 179.951 0.43512C180.362 0.652649 180.362 1.414 179.951 1.74029L178.718 1.84906C177.486 1.95782 177.075 3.37176 177.075 8.37493V13.3781C177.075 19.904 174.302 23.2757 168.139 23.2757C165.058 23.2757 162.798 22.6231 161.36 21.1004C159.922 19.5777 159.306 17.2936 159.306 13.9219V5.98211H159.408Z" fill="#000066"/>
<path d="M202.652 13.7044C202.96 14.357 204.193 16.641 204.398 16.7498C204.603 16.641 205.425 15.0096 206.35 13.1606L208.712 8.26617C210.972 3.58929 211.28 2.71917 211.999 0.326355C213.026 0.43512 214.053 0.43512 214.772 0.43512C215.902 0.43512 217.34 0.43512 218.675 0.326355C219.086 0.43512 219.189 1.30524 218.778 1.63153L217.751 1.74029C215.594 2.06659 215.491 3.04547 215.491 5.98211C215.491 11.3116 215.491 15.6622 215.696 18.7076C215.799 19.7952 215.799 20.9916 217.237 21.2091L218.572 21.3179C218.88 21.5354 218.88 22.4056 218.572 22.6231C216.826 22.5143 214.977 22.5143 213.745 22.5143C212.41 22.5143 210.869 22.5143 209.534 22.6231C209.225 22.4056 209.123 21.5354 209.534 21.3179L210.561 21.2091C212.101 20.9916 212.101 20.5566 212.101 18.5988V6.96099C212.101 6.3084 212.101 5.54705 211.999 5.54705C211.896 5.54705 210.663 8.04864 209.944 9.35381L207.069 15.1183C206.658 15.8797 204.193 21.1004 203.679 22.7319C203.474 22.9494 203.063 22.9494 202.755 22.7319C202.241 20.8829 200.7 17.6199 199.981 15.9884L196.9 9.57134C196.386 8.4837 195.359 5.76458 194.948 5.65582C194.743 5.87335 194.743 9.24505 194.64 10.7678C194.64 12.8343 194.538 14.9008 194.538 17.4024C194.538 20.0127 194.538 21.1004 195.873 21.2091L197.414 21.3179C197.722 21.5354 197.722 22.4056 197.414 22.6231C196.181 22.5143 194.743 22.5143 193.51 22.5143C192.483 22.5143 191.045 22.5143 189.505 22.6231C189.197 22.4056 189.094 21.6442 189.505 21.3179L190.532 21.2091C192.072 20.9916 192.278 20.4478 192.483 18.7076C192.894 15.9885 193.202 7.83111 193.202 4.35064C193.202 2.71917 192.689 1.95782 191.045 1.74029H190.018C189.71 1.52276 189.71 0.652649 190.121 0.43512C191.456 0.543884 192.483 0.543884 193.819 0.543884C194.743 0.543884 195.77 0.543884 197.311 0.43512C197.311 2.61041 198.133 4.24188 199.776 7.61358L202.652 13.7044Z" fill="#000066"/>
<path d="M236.135 14.792C235.005 14.792 234.902 14.792 234.491 15.9884L233.361 19.2513C232.848 20.8828 232.95 21.1003 233.875 21.3179L235.21 21.5354C235.621 21.7529 235.518 22.7318 235.107 22.8406C233.875 22.7318 232.642 22.7318 231.307 22.7318C229.972 22.7318 228.842 22.8406 227.918 22.8406C227.507 22.623 227.507 21.8617 227.815 21.5354L228.945 21.3179C230.383 20.9916 230.999 20.4477 231.923 17.9462L236.545 6.30835C237.367 4.24182 237.675 3.04541 237.778 2.06653C238.6 1.74024 239.524 0.761357 239.832 0.10877C240.243 5.40241e-06 240.551 0.10877 240.551 0.326299C240.757 0.870122 241.476 3.48047 242.605 6.52588L246.919 18.5987C247.536 20.2302 247.947 20.8828 249.693 21.3179L250.412 21.4266C250.823 21.6441 250.72 22.623 250.309 22.7318C249.076 22.623 247.947 22.623 246.303 22.623C244.557 22.623 243.222 22.623 241.989 22.7318C241.476 22.623 241.476 21.6441 241.887 21.4266L242.811 21.3179C244.043 21.1003 244.043 20.774 243.427 19.2513L242.297 15.9884C241.887 14.792 241.784 14.792 240.654 14.792H236.135ZM239.935 13.1605C241.168 13.1605 241.27 13.0517 240.757 11.6378L239.319 7.28723C238.908 6.09082 238.702 5.76452 238.6 5.43823H238.497C238.394 5.65576 238.189 6.09082 237.778 7.17846L236.032 11.6378C235.518 13.0517 235.621 13.0517 236.648 13.0517H239.935V13.1605Z" fill="#000066"/>
<path d="M278.967 8.37493C278.967 3.263 278.659 2.06659 276.913 1.84906L275.372 1.74029C275.064 1.414 275.064 0.761413 275.475 0.43512C277.221 0.543884 278.351 0.543884 279.686 0.543884C281.021 0.543884 282.151 0.543884 283.692 0.43512C284.103 0.652649 284.103 1.414 283.692 1.74029L282.254 1.84906C281.021 1.95782 280.61 3.37176 280.61 8.37493V16.8586C280.61 17.8374 280.61 21.9705 280.713 22.7318C280.61 23.0581 280.097 23.2757 279.686 23.1669C279.172 22.4056 278.248 21.4267 275.269 18.055L267.977 9.89763C266.128 7.83111 264.895 6.52593 264.279 5.98211C264.074 5.98211 264.074 6.52593 264.074 8.1574V14.792C264.074 19.904 264.382 21.2091 266.128 21.3179L267.669 21.4267C268.08 21.753 267.977 22.4056 267.566 22.7318C265.82 22.6231 264.69 22.6231 263.355 22.6231C262.019 22.6231 261.095 22.6231 259.349 22.7318C258.938 22.5143 258.938 21.753 259.349 21.4267L260.787 21.3179C262.019 21.2091 262.43 19.7952 262.43 14.792V5.76458C262.43 4.13311 262.43 3.37176 261.403 2.61041C260.992 2.28412 260.068 1.95782 259.657 1.84906L258.938 1.74029C258.63 1.414 258.63 0.652649 259.041 0.43512C260.89 0.543884 262.122 0.543884 263.149 0.543884C263.868 0.543884 264.485 0.543884 265.101 0.43512C266.025 2.39288 267.874 4.56817 269.826 6.6347L274.345 11.5291C275.372 12.6167 278.145 15.8797 278.659 16.206C278.967 16.0972 278.967 15.4446 278.967 14.1395V8.37493V8.37493Z" fill="#000066"/>
<path d="M123.048 50.5755C123.048 47.3126 123.048 46.4424 121.918 46.2249L120.583 46.0074C120.172 46.0074 120.069 44.9197 120.583 44.7022C123.253 44.4847 125.924 44.3759 128.492 44.3759C132.908 44.3759 137.736 45.1373 137.736 50.4667C137.736 53.7297 135.373 55.1436 133.525 55.905C133.319 56.1225 133.422 56.4488 133.525 56.6663C135.887 60.9081 138.044 63.4097 139.585 64.7149C140.406 65.4762 141.331 65.6938 142.153 65.8025C142.358 66.0201 142.358 66.4551 142.153 66.5639C141.742 66.6726 141.023 66.7814 140.098 66.7814C137.222 66.7814 135.476 65.8025 133.422 62.9746C132.189 61.3432 130.957 59.1679 129.93 57.5364C129.519 56.8838 128.8 56.7751 127.978 56.7751C126.746 56.7751 126.643 56.8838 126.643 57.5364V61.1257C126.643 64.6061 126.848 64.8236 128.903 65.1499L130.032 65.2587C130.341 65.4762 130.341 66.3463 129.93 66.5639C127.875 66.4551 126.335 66.4551 124.897 66.4551C123.356 66.4551 121.918 66.4551 120.172 66.5639C119.658 66.4551 119.658 65.4762 120.069 65.2587L120.788 65.1499C122.843 64.7149 123.048 64.6061 123.048 61.1257V50.5755V50.5755ZM126.643 54.2735C126.643 55.5787 126.643 55.5787 129.005 55.5787C132.087 55.5787 133.73 54.2735 133.73 50.793C133.73 48.2914 132.087 46.0074 128.697 46.0074C126.951 46.0074 126.643 46.1161 126.643 47.4213V54.2735V54.2735Z" fill="#000066"/>
<path d="M153.657 50.0317C153.657 46.5513 153.452 46.3337 151.398 46.0074L150.473 45.8987C150.165 45.6812 150.165 44.811 150.576 44.5935C152.425 44.7023 153.965 44.7023 155.403 44.7023C156.841 44.7023 158.382 44.7023 160.231 44.5935C160.642 44.7023 160.642 45.5724 160.334 45.8987L159.409 46.0074C157.355 46.3337 157.149 46.5513 157.149 50.0317V61.3432C157.149 64.8237 157.355 65.0412 159.409 65.3675L160.334 65.4763C160.642 65.6938 160.642 66.5639 160.231 66.7815C158.382 66.6727 156.841 66.6727 155.403 66.6727C153.863 66.6727 152.425 66.6727 150.576 66.7815C150.165 66.6727 150.165 65.8026 150.473 65.4763L151.398 65.3675C153.452 65.0412 153.657 64.8237 153.657 61.3432V50.0317Z" fill="#000066"/>
<path d="M187.04 62.1045C187.04 59.8205 187.04 59.4942 184.883 59.0591L183.342 58.7328C183.034 58.5153 183.034 57.7539 183.342 57.4277C185.294 57.5364 187.348 57.5364 188.786 57.5364C190.121 57.5364 191.662 57.5364 192.894 57.4277C193.305 57.6452 193.305 58.4065 192.997 58.7328L192.175 58.9504C190.943 59.2767 190.737 59.6029 190.737 61.7782V63.1922C190.737 64.3886 190.84 65.1499 191.456 65.4762C191.662 65.585 191.662 66.1288 191.456 66.2376C190.943 66.2376 189.916 66.5639 188.58 66.7814C187.245 66.9989 185.602 67.434 183.753 67.434C179.542 67.434 176.049 66.3463 173.482 63.736C171.427 61.5607 170.503 58.6241 170.503 56.0137C170.503 53.1858 171.427 50.2492 173.482 48.0739C175.639 45.6811 178.925 44.0496 184.061 44.0496C186.732 44.0496 188.991 44.811 190.429 45.0285C190.429 46.0074 190.532 48.0739 190.84 50.793C190.635 51.2281 189.916 51.3368 189.607 50.793C188.375 46.7687 186.321 45.4636 182.828 45.4636C177.796 45.4636 174.714 49.5966 174.714 55.4699C174.714 61.6695 178.309 65.9113 184.164 65.9113C186.732 65.9113 187.04 65.3675 187.04 63.4097V62.1045Z" fill="#000066"/>
<path d="M219.906 54.3823C221.447 54.3823 221.652 54.3823 221.652 53.0771V50.0317C221.652 46.5513 221.447 46.3337 219.393 46.0074L218.468 45.8987C218.16 45.6812 218.16 44.811 218.571 44.5935C220.42 44.7023 221.961 44.7023 223.399 44.7023C224.939 44.7023 226.377 44.7023 228.226 44.5935C228.637 44.7023 228.637 45.5724 228.329 45.8987L227.404 46.0074C225.35 46.3337 225.145 46.5513 225.145 50.0317V61.3432C225.145 64.8237 225.35 65.0412 227.404 65.3675L228.534 65.4763C228.842 65.6938 228.842 66.5639 228.431 66.7815C226.377 66.6727 224.837 66.6727 223.399 66.6727C221.858 66.6727 220.42 66.6727 218.571 66.7815C218.16 66.6727 218.16 65.8026 218.468 65.4763L219.393 65.3675C221.447 65.0412 221.652 64.8237 221.652 61.3432V57.319C221.652 56.0138 221.55 56.0138 219.906 56.0138H211.484C209.84 56.0138 209.738 56.0138 209.738 57.319V61.3432C209.738 64.8237 209.943 65.15 211.997 65.3675L213.333 65.4763C213.641 65.6938 213.641 66.5639 213.23 66.7815C211.073 66.6727 209.43 66.6727 207.992 66.6727C206.451 66.6727 205.013 66.6727 203.472 66.7815C203.061 66.6727 203.061 65.8026 203.37 65.4763L203.883 65.3675C205.937 64.8237 206.143 64.8237 206.143 61.3432V50.0317C206.143 46.5513 205.937 46.3337 203.883 46.0074L202.753 45.8987C202.445 45.6812 202.445 44.811 202.856 44.5935C204.91 44.7023 206.348 44.7023 207.889 44.7023C209.43 44.7023 210.868 44.7023 212.614 44.5935C213.025 44.7023 213.025 45.5724 212.716 45.8987L211.997 46.0074C209.943 46.4425 209.738 46.5513 209.738 50.0317V53.0771C209.738 54.3823 209.943 54.3823 211.484 54.3823H219.906Z" fill="#000066"/>
<path d="M246.509 47.4213C246.509 46.1161 246.509 46.1161 245.482 46.1161H244.044C241.168 46.1161 239.936 46.4424 238.703 49.9229C238.19 50.2492 237.676 50.0317 237.471 49.7054C237.984 47.5301 238.498 45.0285 238.806 43.7233C239.011 43.5058 239.525 43.5058 239.628 43.7233C239.628 44.7022 240.347 44.7022 242.298 44.7022H255.548C257.294 44.7022 257.602 44.7022 258.013 43.7233C258.321 43.5058 258.732 43.6146 258.835 43.8321C258.424 45.1373 258.219 47.8564 258.321 49.7054C258.116 50.1404 257.294 50.1404 257.089 49.7054C256.781 46.4424 255.548 46.0074 252.672 46.0074H251.029C250.104 46.0074 250.002 46.0074 250.002 47.3126V61.1257C250.002 64.6061 250.207 64.9324 252.261 65.1499L253.597 65.2587C253.905 65.4762 253.905 66.3463 253.494 66.5639C251.542 66.4551 249.693 66.4551 248.255 66.4551C246.715 66.4551 244.969 66.4551 243.017 66.5639C242.606 66.4551 242.606 65.585 242.914 65.2587L244.25 65.1499C246.304 64.9324 246.509 64.6061 246.509 61.1257V47.4213V47.4213Z" fill="#000066"/>
<path d="M273.112 56.3401C270.852 55.035 268.9 53.0772 268.9 50.2493C268.9 46.5513 271.571 43.941 276.398 43.941C278.042 43.941 279.172 44.376 280.815 44.7023C281.226 45.5724 281.534 47.5302 281.534 49.7055C281.431 50.1406 280.507 50.1406 280.301 49.8143C279.891 48.074 278.658 45.4637 275.885 45.4637C273.112 45.4637 271.982 47.2039 271.982 48.9441C271.982 50.7931 273.317 51.8808 275.166 52.9684L278.145 54.5999C279.891 55.47 282.048 57.6453 282.048 61.017C282.048 64.9325 278.966 67.4341 274.241 67.4341C271.365 67.4341 269.414 66.3465 268.798 65.9114C268.387 65.1501 267.771 63.4098 267.771 60.6907C267.976 60.1469 268.695 60.1469 269.003 60.582C269.414 62.4309 271.468 66.0202 274.652 66.0202C277.117 66.0202 278.658 64.715 278.658 62.4309C278.658 60.7995 278.042 59.168 275.269 57.6453L273.112 56.3401Z" fill="#000066"/>
<path d="M133.73 88.5343C133.73 89.1869 133.833 90.8183 134.038 92.1235C133.936 92.3411 133.422 92.4498 133.217 92.2323C132.806 90.4921 131.676 88.8606 128.903 88.8606C126.232 88.8606 123.664 90.7096 123.664 95.1689C123.664 99.5195 126.335 102.021 129.211 102.021C132.087 102.021 133.319 99.5195 133.628 98.7582C133.73 98.4319 134.244 98.4319 134.449 98.7582C134.347 100.172 133.833 101.695 133.422 102.239C132.498 102.347 131.368 102.891 129.211 102.891C127.259 102.891 125.308 102.565 123.767 101.369C122.124 100.172 120.789 98.2143 120.789 95.604C120.789 92.9936 121.816 91.0359 123.356 89.7307C124.897 88.5343 126.951 87.8817 129.416 87.8817C131.471 87.8817 133.422 88.5343 133.73 88.5343Z" fill="#000066"/>
<path d="M146.467 97.4529C145.748 97.4529 145.645 97.4529 145.44 98.2143L144.721 100.281C144.412 101.368 144.515 101.477 145.029 101.586L145.85 101.804C146.056 101.912 146.056 102.565 145.748 102.674C144.926 102.565 144.207 102.565 143.283 102.565C142.461 102.565 141.639 102.674 141.126 102.674C140.817 102.565 140.818 102.021 141.023 101.804L141.742 101.586C142.666 101.368 143.077 101.042 143.693 99.4107L146.672 91.9059C147.186 90.6008 147.391 89.7307 147.494 89.1868C148.007 88.9693 148.624 88.3167 148.829 87.9904C149.034 87.8817 149.24 87.9904 149.343 88.2079C149.445 88.5342 149.959 90.2745 150.678 92.2322L153.451 100.063C153.862 101.151 154.067 101.586 155.197 101.804L155.711 101.912C156.019 102.021 155.916 102.674 155.608 102.782C154.786 102.674 154.067 102.674 153.04 102.674C151.91 102.674 150.986 102.674 150.267 102.782C149.959 102.674 149.959 102.13 150.164 101.912L150.781 101.804C151.602 101.695 151.602 101.477 151.191 100.498L150.472 98.3231C150.267 97.5617 150.164 97.5617 149.445 97.5617H146.467V97.4529ZM148.932 96.3653C149.753 96.3653 149.856 96.2565 149.445 95.3864L148.521 92.5585C148.316 91.7972 148.11 91.5797 148.007 91.3621H147.905C147.802 91.4709 147.699 91.7972 147.391 92.4498L146.261 95.3864C145.953 96.2565 145.953 96.3653 146.672 96.3653H148.932V96.3653Z" fill="#000066"/>
<path d="M171.428 96.8004C171.633 97.2355 172.455 98.6494 172.557 98.7582C172.66 98.6494 173.276 97.6705 173.79 96.4741L175.331 93.32C176.769 90.2745 176.974 89.7307 177.488 88.208C178.207 88.3168 178.823 88.3168 179.234 88.3168C179.953 88.3168 180.877 88.3168 181.802 88.208C182.11 88.3168 182.11 88.8606 181.904 89.0781L181.185 89.1869C179.747 89.4044 179.747 90.057 179.747 91.906C179.747 95.3865 179.747 98.1056 179.953 100.063C180.056 100.825 180.056 101.586 180.98 101.695L181.904 101.804C182.11 101.912 182.11 102.456 181.904 102.674C180.775 102.565 179.542 102.565 178.823 102.565C177.899 102.565 176.974 102.565 176.152 102.674C175.947 102.565 175.947 102.021 176.152 101.804L176.871 101.695C177.899 101.586 177.899 101.26 177.899 99.9546V92.4498C177.899 92.0148 177.899 91.5797 177.796 91.4709C177.693 91.4709 176.871 93.1024 176.461 93.9725L174.612 97.7793C174.406 98.2144 172.763 101.695 172.455 102.674C172.249 102.782 172.044 102.782 171.839 102.674C171.53 101.477 170.503 99.4108 169.99 98.3231L167.935 94.1901C167.627 93.4287 166.908 91.6885 166.703 91.6885C166.6 91.906 166.497 94.0813 166.497 94.9514C166.497 96.2566 166.395 97.6705 166.395 99.1932C166.395 100.825 166.395 101.586 167.319 101.695L168.346 101.804C168.552 101.912 168.552 102.456 168.346 102.674C167.525 102.565 166.6 102.565 165.778 102.565C165.059 102.565 164.135 102.565 163.211 102.674C163.005 102.565 163.005 102.021 163.211 101.804L163.827 101.695C164.854 101.586 164.957 101.26 165.059 100.063C165.265 98.3231 165.47 92.9937 165.47 90.8184C165.47 89.7307 165.162 89.2957 164.032 89.1869L163.313 89.0781C163.108 88.9694 163.108 88.4255 163.416 88.208C164.238 88.3168 164.957 88.3168 165.778 88.3168C166.395 88.3168 167.011 88.3168 168.038 88.208C168.038 89.6219 168.552 90.7096 169.682 92.8849L171.428 96.8004Z" fill="#000066"/>
<path d="M192.688 92.1235C192.688 89.9482 192.688 89.5132 191.969 89.4044L191.045 89.2957C190.737 89.1869 190.84 88.5343 191.045 88.4255C192.791 88.3168 194.332 88.208 195.975 88.208C197.721 88.208 198.851 88.4255 199.673 88.7518C200.7 89.1869 202.138 90.2745 202.138 92.5586C202.138 94.8426 200.7 95.8215 199.57 96.2566C198.543 96.6916 197.31 96.8004 196.797 96.8004C196.591 96.6916 196.591 96.3653 196.797 96.2566C198.748 95.8215 199.673 94.6251 199.673 92.5586C199.673 90.3833 198.44 89.1869 196.283 89.1869C195.051 89.1869 195.051 89.4044 195.051 90.2745V99.0845C195.051 101.369 195.153 101.477 196.489 101.695L197.208 101.804C197.413 101.912 197.413 102.565 197.105 102.674C195.77 102.565 194.743 102.565 193.818 102.565C192.791 102.565 191.867 102.565 190.84 102.674C190.634 102.565 190.531 102.021 190.737 101.804L191.25 101.695C192.586 101.369 192.688 101.369 192.688 99.0845V92.1235V92.1235Z" fill="#000066"/>
<path d="M213.641 97.4529C212.922 97.4529 212.819 97.4529 212.614 98.2143L211.895 100.281C211.587 101.368 211.689 101.477 212.203 101.586L213.025 101.804C213.23 101.912 213.23 102.565 212.922 102.674C212.1 102.565 211.381 102.565 210.457 102.565C209.635 102.565 208.813 102.674 208.3 102.674C207.992 102.565 207.992 102.021 208.197 101.804L208.916 101.586C209.841 101.368 210.251 101.042 210.868 99.4107L213.846 91.9059C214.36 90.6008 214.565 89.7307 214.668 89.1868C215.182 88.9693 215.798 88.3167 216.003 87.9904C216.209 87.8817 216.414 87.9904 216.517 88.2079C216.62 88.5342 217.133 90.2745 217.852 92.2322L220.625 100.063C221.036 101.151 221.242 101.586 222.371 101.804L222.885 101.912C223.193 102.021 223.09 102.674 222.782 102.782C221.961 102.674 221.242 102.674 220.214 102.674C219.085 102.674 218.16 102.674 217.441 102.782C217.133 102.674 217.133 102.13 217.339 101.912L217.955 101.804C218.776 101.695 218.776 101.477 218.366 100.498L217.647 98.3231C217.441 97.5617 217.339 97.5617 216.62 97.5617H213.641V97.4529ZM216.003 96.3653C216.825 96.3653 216.928 96.2565 216.517 95.3864L215.592 92.5585C215.387 91.7972 215.182 91.5797 215.079 91.3621H214.976C214.873 91.4709 214.771 91.7972 214.463 92.4498L213.333 95.3864C213.025 96.2565 213.025 96.3653 213.744 96.3653H216.003V96.3653Z" fill="#000066"/>
<path d="M232.233 91.7972C232.233 89.5132 232.13 89.4044 230.795 89.1869L230.179 89.0781C229.973 88.9694 229.973 88.3168 230.281 88.208C231.514 88.3168 232.438 88.3168 233.466 88.3168C234.493 88.3168 235.417 88.3168 236.65 88.208C236.855 88.3168 236.958 88.8606 236.752 89.0781L236.136 89.1869C234.801 89.4044 234.698 89.5132 234.698 91.7972V99.0845C234.698 101.369 234.801 101.477 236.136 101.695L236.752 101.804C236.958 101.912 236.958 102.565 236.65 102.674C235.52 102.565 234.493 102.565 233.466 102.565C232.438 102.565 231.514 102.565 230.281 102.674C230.076 102.565 229.973 102.021 230.179 101.804L230.795 101.695C232.13 101.477 232.233 101.369 232.233 99.0845V91.7972Z" fill="#000066"/>
<path d="M255.342 99.6283C255.342 98.1056 255.342 97.888 253.904 97.6705L252.877 97.453C252.672 97.3442 252.672 96.8004 252.877 96.5829C254.109 96.6916 255.445 96.6916 256.369 96.6916C257.191 96.6916 258.218 96.6916 258.937 96.5829C259.142 96.6916 259.245 97.2355 259.04 97.453L258.526 97.5617C257.704 97.7793 257.602 97.9968 257.602 99.4107V100.281C257.602 101.042 257.704 101.586 258.115 101.804C258.218 101.912 258.218 102.239 258.115 102.239C257.807 102.239 257.088 102.456 256.266 102.565C255.445 102.674 254.315 103 253.185 103C250.412 103 248.152 102.347 246.509 100.607C245.174 99.1932 244.557 97.3442 244.557 95.604C244.557 93.755 245.174 91.906 246.509 90.4921C247.947 88.9694 250.001 87.8817 253.288 87.8817C255.034 87.8817 256.472 88.3168 257.396 88.5343C257.396 89.1869 257.499 90.4921 257.704 92.2323C257.602 92.5586 257.088 92.5586 256.883 92.2323C256.061 89.6219 254.726 88.7518 252.466 88.7518C249.179 88.7518 247.228 91.3622 247.228 95.1689C247.228 99.1932 249.59 101.912 253.288 101.912C254.931 101.912 255.137 101.586 255.137 100.281V99.6283H255.342Z" fill="#000066"/>
<path d="M279.275 93.4287C279.275 90.1658 279.069 89.2957 277.939 89.1869L276.912 89.0781C276.707 88.8606 276.707 88.4255 277.015 88.208C278.145 88.3168 278.864 88.3168 279.788 88.3168C280.713 88.3168 281.329 88.3168 282.356 88.208C282.562 88.3168 282.562 88.8606 282.356 89.0781L281.432 89.1869C280.61 89.2957 280.405 90.1658 280.405 93.4287V98.8669C280.405 99.5195 280.405 102.13 280.507 102.674C280.405 102.891 280.096 103 279.891 103C279.583 102.565 278.967 101.804 277.015 99.6283L272.29 94.2988C271.16 92.9936 270.339 92.1235 269.928 91.7972C269.825 91.7972 269.825 92.1235 269.825 93.2112V97.5618C269.825 100.825 270.031 101.695 271.16 101.804L272.188 101.912C272.393 102.13 272.393 102.565 272.085 102.782C270.955 102.674 270.236 102.674 269.312 102.674C268.387 102.674 267.874 102.674 266.744 102.782C266.538 102.674 266.538 102.13 266.744 101.912L267.668 101.804C268.49 101.695 268.695 100.825 268.695 97.5618V91.6885C268.695 90.6008 268.695 90.1658 268.079 89.622C267.874 89.4044 267.257 89.1869 266.949 89.1869L266.436 89.0781C266.23 88.8606 266.23 88.4255 266.538 88.208C267.668 88.3168 268.49 88.3168 269.209 88.3168C269.62 88.3168 270.031 88.3168 270.441 88.208C271.058 89.4044 272.188 90.8184 273.42 92.2323L276.296 95.3865C277.015 96.1478 278.761 98.2144 279.069 98.4319C279.275 98.3231 279.275 97.8881 279.275 97.1267V93.4287V93.4287Z" fill="#000066"/>
</g>
<defs>
<clipPath id="clip0">
<rect width="284" height="103" fill="white"/>
</clipPath>
</defs>
</svg>
