<svg width="200" height="70" viewBox="0 0 139 44" xmlns="http://www.w3.org/2000/svg" aria-hidden="true">
						<path d="M57.6 0L60.6462 11.6769C61.3231 14.3846 63.0154 21.8308 63.5231 24.3692H63.6923C63.3538 22 63.0154 11.6769 63.0154 9.47692V0H69.6154V44H62.6769L59.8 33C59.1231 30.2923 57.4308 23.1846 57.0923 20.6462H56.9231C57.2615 23.0154 57.4308 33 57.4308 35.2V44H51V0H57.6Z"></path>
						<path d="M79.7693 6.26154V18.4462H84.8462V24.7077H79.7693V44H72.8308V0H86.7077V6.26154H79.7693Z"></path>
						<path d="M102.616 44H88.7386V0H95.6771V37.5692H102.616V44Z"></path>
						<path d="M114.123 26.9077H111.754V44H104.815V0H114.123C117.677 0 121.231 2.03077 121.231 7.95385V18.9538C121.231 24.8769 117.677 26.9077 114.123 26.9077ZM114.631 8.12308C114.631 6.76923 114.292 6.26154 113.446 6.26154H111.585V21.1538H113.446C114.292 21.1538 114.631 20.6462 114.631 19.2923V8.12308Z"></path>
						<path d="M127.662 36.3846L126.816 44H120.723L126.646 0H133.077L139 44H132.231L131.554 36.5538H127.662V36.3846ZM130.877 30.1231L129.862 17.9385L128.508 30.1231H130.877Z"></path>
						<path d="M44 0H0V44H44V0Z" fill="#EC3029"></path>
						<path d="M40.4462 14.2702L39.9385 14.9498L39.2616 14.4401C39.2616 14.4401 37.9078 13.4208 36.3847 13.7606C35.877 13.9305 35.5385 14.1003 35.0308 14.4401L39.6001 17.498L38.9231 18.8571L34.1847 15.6293C35.0308 16.4787 37.2308 18.5173 38.5847 19.5366L37.7385 20.8957C37.0616 20.3861 36.3847 19.8764 35.5385 19.1969C34.5231 19.8764 33.5078 20.2162 33.3385 20.2162L32.8308 20.3861L32.4924 19.8764C30.4616 16.4787 31.6462 11.5521 31.6462 11.2123L33.0001 11.722C33.0001 11.722 32.6616 13.081 32.6616 14.7799V14.9498C33.677 13.2509 34.8616 12.4015 36.2154 12.0617C37.5693 11.722 38.9231 12.2316 39.6001 12.5714C40.277 11.722 40.6155 10.7027 40.6155 9.85324C40.6155 6.96521 38.2462 4.75671 37.9078 4.58683C36.2154 3.39764 34.5231 3.05787 32.8308 3.39764C30.4616 3.90729 28.7693 5.9459 28.0924 6.79532C30.2924 10.5328 30.8001 13.5907 30.8001 13.7606L29.277 14.1003C29.277 14.1003 28.7693 10.8725 26.5693 7.30497L26.2308 6.79532L26.5693 6.28567C26.7385 6.11578 28.9385 2.54822 32.6616 1.6988C34.6924 1.18914 36.8924 1.6988 39.0924 3.05787C41.1231 5.09648 44.1693 9.85324 40.4462 14.2702Z" fill="white"></path>
						<path d="M30.8003 29.7297L31.308 27.861C31.8157 28.3707 34.0157 29.8996 34.5234 30.5792L33.6772 32.278C33.508 31.9382 31.8157 30.5792 30.8003 29.7297Z" fill="white"></path>
						<path d="M31.3077 39.0734C30.6308 39.583 28.9385 39.9228 24.7077 35.8456C20.477 31.9382 17.0923 27.6911 16.7539 25.4826C16.2462 23.2741 17.2616 19.7066 18.4462 17.3282L19.9693 18.0077C18.9539 19.8764 18.4462 22.4247 18.4462 24.1236C18.4462 24.4633 18.4462 24.8031 18.6154 25.1429C18.9539 26.6718 21.6616 30.4093 26.2308 34.6564C29.277 37.3745 30.4616 37.7143 30.8 37.7143C35.5385 32.7876 36.7231 28.7104 36.7231 25.8224C36.7231 22.9344 35.5385 21.2355 35.3693 21.0656L36.7231 20.0463C36.3847 20.3861 42.1385 27.861 31.3077 39.0734Z" fill="white"></path>
						<path d="M26.9078 42.9807C23.1847 36.8649 13.7078 32.9575 13.5386 32.9575L14.2155 31.4286C14.7232 31.5984 25.2155 36.5251 29.1078 42.9807H26.9078Z" fill="white"></path>
						<path d="M21.3233 21.5753C19.8002 19.5366 21.3233 18.1776 21.3233 18.1776C25.7233 18.0077 28.9387 22.4247 28.9387 22.4247C32.1541 26.1621 29.7848 29.8996 29.7848 29.8996C29.7848 29.8996 26.7387 28.7104 24.3694 27.6911C22.0002 26.6718 21.6617 25.9922 21.831 24.2934C22.0002 22.5946 21.3233 21.5753 21.3233 21.5753Z" fill="white"></path>
						<path d="M1.35405 6.96521L0.677124 5.60613C1.18482 5.43625 13.8771 0.169841 22.1694 5.26637C26.231 7.81463 28.431 12.2316 28.9387 18.6872L27.2464 18.8571C26.9079 13.081 24.8771 9.00382 21.3233 6.79532C13.7079 1.86868 1.52328 6.96521 1.35405 6.96521Z" fill="white"></path>
						<path d="M12.5232 18.1776C11.0001 22.0849 9.47706 24.8031 7.78475 27.3513L6.43091 26.5019C7.95399 23.9536 9.64629 21.4054 11.0001 17.498C11.3386 16.8185 11.6771 15.7992 11.1694 15.1197C10.8309 14.4401 9.81552 14.2702 9.81552 14.2702L10.8309 12.9112C10.8309 12.9112 11.8463 13.0811 12.6924 14.2702C13.2001 15.2895 13.2001 16.4787 12.5232 18.1776Z" fill="white"></path>
						<path d="M8.63097 43.1505C7.10789 42.3011 5.07712 39.7528 4.73866 39.4131C1.35405 34.9961 4.23097 30.0694 5.92328 27.3513L7.27712 28.2007C5.58482 30.749 3.21559 34.6563 5.92328 38.2239C6.76943 39.0733 10.154 42.3011 11.1694 42.9806L8.63097 43.1505Z" fill="white"></path>
						<path d="M1.69235 16.3088L0.846191 14.9497C1.01542 14.7799 1.69235 14.1003 2.20004 13.4208C4.90773 10.7026 7.61542 12.5714 8.46158 11.2123C9.30773 9.85322 8.80004 7.13507 8.29235 6.28565L9.81542 5.776C9.98465 6.11577 11.3385 10.0231 9.64619 12.2316C8.80004 13.2509 7.44619 13.5907 5.75388 13.4208C5.75388 13.4208 4.56927 13.4208 3.38465 14.4401C3.04619 14.7799 2.20004 15.9691 1.69235 16.3088Z" fill="white"></path>
						<path d="M32.8309 16.6486C33.0002 17.1583 33.1694 18.0077 33.5079 18.5174C33.6771 18.3475 34.0155 18.3475 34.354 18.1776C33.6771 17.6679 33.1694 16.8185 32.8309 16.6486Z" fill="#EE3124"></path>
						</svg>